<svg width="1020" height="1020" viewBox="0 0 1020 1020" fill="none" xmlns="http://www.w3.org/2000/svg">
<g filter="url(#filter0_d_2_7192)">
<rect x="110" y="92" width="800" height="800" rx="56" fill="white"/>
<path d="M405.208 715V685.909H423.446V689.688H409.597V698.551H422.495V702.315H409.597V711.222H423.617V715H405.208ZM428.968 715V693.182H433.045V696.733H433.315C433.77 695.53 434.513 694.593 435.545 693.92C436.577 693.239 437.813 692.898 439.252 692.898C440.711 692.898 441.932 693.239 442.917 693.92C443.912 694.602 444.645 695.54 445.119 696.733H445.346C445.867 695.568 446.696 694.64 447.832 693.949C448.968 693.248 450.323 692.898 451.895 692.898C453.874 692.898 455.488 693.518 456.738 694.759C457.998 695.999 458.627 697.869 458.627 700.369V715H454.38V700.767C454.38 699.29 453.978 698.22 453.173 697.557C452.368 696.894 451.407 696.562 450.289 696.562C448.907 696.562 447.832 696.989 447.065 697.841C446.298 698.684 445.914 699.768 445.914 701.094V715H441.681V700.497C441.681 699.313 441.312 698.362 440.574 697.642C439.835 696.922 438.874 696.562 437.69 696.562C436.885 696.562 436.142 696.776 435.46 697.202C434.788 697.618 434.243 698.201 433.826 698.949C433.419 699.697 433.216 700.563 433.216 701.548V715H428.968ZM464.32 723.182V693.182H468.468V696.719H468.823C469.069 696.264 469.424 695.739 469.888 695.142C470.352 694.545 470.996 694.025 471.82 693.58C472.644 693.125 473.733 692.898 475.087 692.898C476.848 692.898 478.42 693.343 479.803 694.233C481.185 695.123 482.27 696.406 483.056 698.082C483.851 699.759 484.249 701.776 484.249 704.134C484.249 706.491 483.856 708.513 483.07 710.199C482.284 711.875 481.204 713.168 479.831 714.077C478.458 714.976 476.891 715.426 475.13 715.426C473.804 715.426 472.72 715.204 471.877 714.759C471.043 714.313 470.39 713.793 469.917 713.196C469.443 712.599 469.078 712.069 468.823 711.605H468.567V723.182H464.32ZM468.482 704.091C468.482 705.625 468.704 706.97 469.15 708.125C469.595 709.28 470.239 710.185 471.081 710.838C471.924 711.482 472.956 711.804 474.178 711.804C475.447 711.804 476.507 711.468 477.36 710.795C478.212 710.114 478.856 709.19 479.292 708.026C479.737 706.861 479.959 705.549 479.959 704.091C479.959 702.652 479.741 701.359 479.306 700.213C478.88 699.067 478.236 698.163 477.374 697.5C476.522 696.837 475.456 696.506 474.178 696.506C472.947 696.506 471.905 696.823 471.053 697.457C470.21 698.092 469.571 698.977 469.135 700.114C468.7 701.25 468.482 702.576 468.482 704.091ZM499.192 693.182V696.591H487.275V693.182H499.192ZM490.471 687.955H494.718V708.594C494.718 709.418 494.841 710.038 495.087 710.455C495.333 710.862 495.65 711.141 496.039 711.293C496.436 711.435 496.867 711.506 497.331 711.506C497.672 711.506 497.971 711.482 498.226 711.435C498.482 711.387 498.681 711.349 498.823 711.321L499.59 714.83C499.344 714.924 498.993 715.019 498.539 715.114C498.084 715.218 497.516 715.275 496.834 715.284C495.717 715.303 494.675 715.104 493.709 714.688C492.743 714.271 491.962 713.627 491.365 712.756C490.769 711.884 490.471 710.791 490.471 709.474V687.955ZM506.575 723.182C505.94 723.182 505.363 723.13 504.842 723.026C504.321 722.931 503.933 722.827 503.677 722.713L504.7 719.233C505.476 719.441 506.168 719.531 506.774 719.503C507.38 719.474 507.915 719.247 508.379 718.821C508.852 718.395 509.269 717.699 509.629 716.733L510.154 715.284L502.172 693.182H506.717L512.243 710.114H512.47L517.995 693.182H522.555L513.564 717.912C513.147 719.048 512.617 720.009 511.973 720.795C511.329 721.591 510.562 722.188 509.672 722.585C508.781 722.983 507.749 723.182 506.575 723.182ZM561.635 695.369H557.203C557.033 694.422 556.716 693.589 556.252 692.869C555.788 692.15 555.22 691.539 554.547 691.037C553.875 690.535 553.122 690.156 552.289 689.901C551.465 689.645 550.589 689.517 549.661 689.517C547.985 689.517 546.484 689.938 545.158 690.781C543.842 691.624 542.8 692.86 542.033 694.489C541.275 696.117 540.897 698.106 540.897 700.455C540.897 702.822 541.275 704.82 542.033 706.449C542.8 708.078 543.846 709.309 545.172 710.142C546.498 710.975 547.989 711.392 549.647 711.392C550.565 711.392 551.436 711.269 552.26 711.023C553.094 710.767 553.846 710.393 554.519 709.901C555.191 709.408 555.759 708.807 556.223 708.097C556.697 707.377 557.024 706.553 557.203 705.625L561.635 705.639C561.399 707.069 560.939 708.385 560.257 709.588C559.585 710.781 558.719 711.813 557.658 712.685C556.607 713.546 555.404 714.214 554.05 714.688C552.696 715.161 551.219 715.398 549.618 715.398C547.099 715.398 544.855 714.801 542.885 713.608C540.916 712.405 539.363 710.687 538.226 708.452C537.099 706.217 536.536 703.551 536.536 700.455C536.536 697.348 537.104 694.683 538.24 692.457C539.377 690.223 540.93 688.509 542.9 687.315C544.869 686.113 547.109 685.511 549.618 685.511C551.162 685.511 552.601 685.734 553.936 686.179C555.281 686.615 556.489 687.259 557.559 688.111C558.629 688.954 559.514 689.986 560.215 691.207C560.916 692.42 561.389 693.807 561.635 695.369ZM572.896 715.483C571.513 715.483 570.263 715.227 569.146 714.716C568.029 714.195 567.143 713.442 566.49 712.457C565.846 711.473 565.524 710.265 565.524 708.835C565.524 707.604 565.761 706.591 566.234 705.795C566.708 705 567.347 704.37 568.152 703.906C568.957 703.442 569.856 703.092 570.85 702.855C571.845 702.618 572.858 702.438 573.89 702.315C575.197 702.164 576.258 702.041 577.072 701.946C577.886 701.842 578.478 701.676 578.848 701.449C579.217 701.222 579.402 700.852 579.402 700.341V700.241C579.402 699.001 579.051 698.04 578.35 697.358C577.659 696.676 576.627 696.335 575.254 696.335C573.824 696.335 572.697 696.652 571.873 697.287C571.059 697.912 570.495 698.608 570.183 699.375L566.191 698.466C566.665 697.14 567.356 696.07 568.265 695.256C569.184 694.432 570.24 693.835 571.433 693.466C572.626 693.087 573.881 692.898 575.197 692.898C576.068 692.898 576.992 693.002 577.967 693.21C578.952 693.409 579.87 693.778 580.723 694.318C581.584 694.858 582.29 695.63 582.839 696.634C583.388 697.628 583.663 698.92 583.663 700.511V715H579.515V712.017H579.345C579.07 712.566 578.658 713.106 578.109 713.636C577.56 714.167 576.854 714.607 575.993 714.957C575.131 715.308 574.099 715.483 572.896 715.483ZM573.819 712.074C574.993 712.074 575.997 711.842 576.831 711.378C577.673 710.914 578.313 710.308 578.748 709.56C579.193 708.802 579.416 707.992 579.416 707.131V704.318C579.264 704.47 578.971 704.612 578.535 704.744C578.109 704.867 577.621 704.976 577.072 705.071C576.523 705.156 575.988 705.237 575.467 705.312C574.946 705.379 574.511 705.436 574.16 705.483C573.336 705.587 572.583 705.762 571.902 706.009C571.229 706.255 570.69 706.61 570.282 707.074C569.885 707.528 569.686 708.134 569.686 708.892C569.686 709.943 570.074 710.739 570.85 711.278C571.627 711.809 572.617 712.074 573.819 712.074ZM589.32 715V693.182H593.425V696.648H593.652C594.05 695.473 594.751 694.55 595.755 693.878C596.768 693.196 597.914 692.855 599.192 692.855C599.457 692.855 599.77 692.865 600.13 692.884C600.499 692.902 600.788 692.926 600.996 692.955V697.017C600.826 696.97 600.523 696.918 600.087 696.861C599.651 696.795 599.216 696.761 598.78 696.761C597.776 696.761 596.882 696.974 596.096 697.401C595.319 697.817 594.703 698.4 594.249 699.148C593.794 699.886 593.567 700.729 593.567 701.676V715H589.32ZM616.145 693.182V696.591H604.228V693.182H616.145ZM607.424 687.955H611.671V708.594C611.671 709.418 611.794 710.038 612.04 710.455C612.286 710.862 612.604 711.141 612.992 711.293C613.39 711.435 613.82 711.506 614.284 711.506C614.625 711.506 614.924 711.482 615.179 711.435C615.435 711.387 615.634 711.349 615.776 711.321L616.543 714.83C616.297 714.924 615.946 715.019 615.492 715.114C615.037 715.218 614.469 715.275 613.787 715.284C612.67 715.303 611.628 715.104 610.662 714.688C609.696 714.271 608.915 713.627 608.319 712.756C607.722 711.884 607.424 710.791 607.424 709.474V687.955Z" fill="#111111"/>
<path d="M401.485 745.545H403.905L408.746 753.693H408.951L413.792 745.545H416.212L409.905 755.807V763H407.792V755.807L401.485 745.545ZM422.14 763.273C420.958 763.273 419.921 762.991 419.029 762.429C418.142 761.866 417.449 761.08 416.949 760.068C416.455 759.057 416.208 757.875 416.208 756.523C416.208 755.159 416.455 753.969 416.949 752.952C417.449 751.935 418.142 751.145 419.029 750.582C419.921 750.02 420.958 749.739 422.14 749.739C423.321 749.739 424.355 750.02 425.242 750.582C426.134 751.145 426.827 751.935 427.321 752.952C427.821 753.969 428.071 755.159 428.071 756.523C428.071 757.875 427.821 759.057 427.321 760.068C426.827 761.08 426.134 761.866 425.242 762.429C424.355 762.991 423.321 763.273 422.14 763.273ZM422.14 761.466C423.037 761.466 423.776 761.236 424.355 760.776C424.935 760.315 425.364 759.71 425.642 758.96C425.921 758.21 426.06 757.398 426.06 756.523C426.06 755.648 425.921 754.832 425.642 754.077C425.364 753.321 424.935 752.71 424.355 752.244C423.776 751.778 423.037 751.545 422.14 751.545C421.242 751.545 420.503 751.778 419.924 752.244C419.344 752.71 418.915 753.321 418.637 754.077C418.358 754.832 418.219 755.648 418.219 756.523C418.219 757.398 418.358 758.21 418.637 758.96C418.915 759.71 419.344 760.315 419.924 760.776C420.503 761.236 421.242 761.466 422.14 761.466ZM439.392 757.648V749.909H441.403V763H439.392V760.784H439.255C438.949 761.449 438.471 762.014 437.824 762.48C437.176 762.94 436.358 763.17 435.369 763.17C434.551 763.17 433.824 762.991 433.187 762.634C432.551 762.27 432.051 761.724 431.687 760.997C431.324 760.264 431.142 759.341 431.142 758.227V749.909H433.153V758.091C433.153 759.045 433.42 759.807 433.954 760.375C434.494 760.943 435.181 761.227 436.017 761.227C436.517 761.227 437.025 761.099 437.542 760.844C438.065 760.588 438.502 760.196 438.855 759.668C439.213 759.139 439.392 758.466 439.392 757.648ZM445.087 763V749.909H447.03V751.886H447.167C447.405 751.239 447.837 750.713 448.462 750.31C449.087 749.906 449.792 749.705 450.576 749.705C450.723 749.705 450.908 749.707 451.13 749.713C451.351 749.719 451.519 749.727 451.632 749.739V751.784C451.564 751.767 451.408 751.741 451.164 751.707C450.925 751.668 450.672 751.648 450.405 751.648C449.769 751.648 449.201 751.781 448.701 752.048C448.206 752.31 447.814 752.673 447.525 753.139C447.24 753.599 447.098 754.125 447.098 754.716V763H445.087ZM466.085 763.273C464.858 763.273 463.801 762.983 462.914 762.403C462.028 761.824 461.346 761.026 460.869 760.009C460.392 758.991 460.153 757.83 460.153 756.523C460.153 755.193 460.397 754.02 460.886 753.003C461.38 751.98 462.068 751.182 462.949 750.608C463.835 750.028 464.869 749.739 466.051 749.739C466.971 749.739 467.801 749.909 468.539 750.25C469.278 750.591 469.883 751.068 470.355 751.682C470.826 752.295 471.119 753.011 471.233 753.83H469.221C469.068 753.233 468.727 752.705 468.199 752.244C467.676 751.778 466.971 751.545 466.085 751.545C465.301 751.545 464.613 751.75 464.022 752.159C463.437 752.562 462.98 753.134 462.65 753.872C462.326 754.605 462.164 755.466 462.164 756.455C462.164 757.466 462.324 758.347 462.642 759.097C462.966 759.847 463.42 760.429 464.005 760.844C464.596 761.259 465.289 761.466 466.085 761.466C466.608 761.466 467.082 761.375 467.508 761.193C467.934 761.011 468.295 760.75 468.591 760.409C468.886 760.068 469.096 759.659 469.221 759.182H471.233C471.119 759.955 470.838 760.651 470.389 761.27C469.946 761.884 469.358 762.372 468.625 762.736C467.897 763.094 467.051 763.273 466.085 763.273ZM478.025 763.307C477.196 763.307 476.443 763.151 475.767 762.838C475.091 762.52 474.554 762.062 474.156 761.466C473.758 760.864 473.559 760.136 473.559 759.284C473.559 758.534 473.707 757.926 474.002 757.46C474.298 756.989 474.693 756.619 475.187 756.352C475.681 756.085 476.227 755.886 476.824 755.756C477.426 755.619 478.031 755.511 478.639 755.432C479.434 755.33 480.079 755.253 480.574 755.202C481.074 755.145 481.437 755.051 481.664 754.92C481.897 754.79 482.014 754.562 482.014 754.239V754.17C482.014 753.33 481.784 752.676 481.324 752.21C480.869 751.744 480.179 751.511 479.252 751.511C478.292 751.511 477.539 751.722 476.994 752.142C476.449 752.562 476.065 753.011 475.843 753.489L473.934 752.807C474.275 752.011 474.73 751.392 475.298 750.949C475.872 750.5 476.497 750.187 477.173 750.011C477.855 749.83 478.525 749.739 479.184 749.739C479.605 749.739 480.088 749.79 480.633 749.892C481.184 749.989 481.716 750.19 482.227 750.497C482.744 750.804 483.173 751.267 483.514 751.886C483.855 752.506 484.025 753.335 484.025 754.375V763H482.014V761.227H481.912C481.775 761.511 481.548 761.815 481.23 762.139C480.912 762.463 480.488 762.739 479.96 762.966C479.431 763.193 478.787 763.307 478.025 763.307ZM478.332 761.5C479.127 761.5 479.798 761.344 480.343 761.031C480.895 760.719 481.309 760.315 481.588 759.821C481.872 759.327 482.014 758.807 482.014 758.261V756.42C481.929 756.523 481.741 756.616 481.451 756.702C481.167 756.781 480.838 756.852 480.463 756.915C480.093 756.972 479.733 757.023 479.38 757.068C479.034 757.108 478.752 757.142 478.537 757.17C478.014 757.239 477.525 757.349 477.071 757.503C476.622 757.651 476.258 757.875 475.98 758.176C475.707 758.472 475.571 758.875 475.571 759.386C475.571 760.085 475.829 760.614 476.346 760.972C476.869 761.324 477.531 761.5 478.332 761.5ZM487.696 763V749.909H489.64V751.886H489.776C490.015 751.239 490.446 750.713 491.071 750.31C491.696 749.906 492.401 749.705 493.185 749.705C493.333 749.705 493.517 749.707 493.739 749.713C493.961 749.719 494.128 749.727 494.242 749.739V751.784C494.174 751.767 494.017 751.741 493.773 751.707C493.534 751.668 493.282 751.648 493.015 751.648C492.378 751.648 491.81 751.781 491.31 752.048C490.816 752.31 490.424 752.673 490.134 753.139C489.85 753.599 489.708 754.125 489.708 754.716V763H487.696ZM503.14 749.909V751.614H496.355V749.909H503.14ZM498.333 746.773H500.344V759.25C500.344 759.818 500.426 760.244 500.591 760.528C500.762 760.807 500.978 760.994 501.239 761.091C501.506 761.182 501.787 761.227 502.083 761.227C502.304 761.227 502.486 761.216 502.628 761.193C502.77 761.165 502.884 761.142 502.969 761.125L503.378 762.932C503.242 762.983 503.051 763.034 502.807 763.085C502.563 763.142 502.253 763.17 501.878 763.17C501.31 763.17 500.753 763.048 500.208 762.804C499.668 762.56 499.219 762.188 498.861 761.688C498.509 761.188 498.333 760.557 498.333 759.795V746.773ZM512.915 763V749.909H514.926V763H512.915ZM513.938 747.727C513.546 747.727 513.208 747.594 512.924 747.327C512.645 747.06 512.506 746.739 512.506 746.364C512.506 745.989 512.645 745.668 512.924 745.401C513.208 745.134 513.546 745 513.938 745C514.33 745 514.665 745.134 514.944 745.401C515.228 745.668 515.37 745.989 515.37 746.364C515.37 746.739 515.228 747.06 514.944 747.327C514.665 747.594 514.33 747.727 513.938 747.727ZM527.883 752.841L526.076 753.352C525.963 753.051 525.795 752.759 525.574 752.474C525.358 752.185 525.062 751.946 524.687 751.759C524.312 751.571 523.832 751.477 523.247 751.477C522.446 751.477 521.778 751.662 521.244 752.031C520.716 752.395 520.451 752.858 520.451 753.42C520.451 753.92 520.633 754.315 520.997 754.605C521.36 754.895 521.929 755.136 522.701 755.33L524.645 755.807C525.815 756.091 526.687 756.526 527.261 757.111C527.835 757.69 528.122 758.437 528.122 759.352C528.122 760.102 527.906 760.773 527.474 761.364C527.048 761.955 526.451 762.42 525.684 762.761C524.917 763.102 524.025 763.273 523.008 763.273C521.673 763.273 520.568 762.983 519.693 762.403C518.818 761.824 518.264 760.977 518.031 759.864L519.94 759.386C520.122 760.091 520.466 760.619 520.971 760.972C521.483 761.324 522.15 761.5 522.974 761.5C523.912 761.5 524.656 761.301 525.207 760.903C525.764 760.5 526.042 760.017 526.042 759.455C526.042 759 525.883 758.619 525.565 758.312C525.247 758 524.758 757.767 524.099 757.614L521.917 757.102C520.718 756.818 519.838 756.378 519.275 755.781C518.718 755.179 518.44 754.426 518.44 753.523C518.44 752.784 518.647 752.131 519.062 751.562C519.483 750.994 520.054 750.548 520.775 750.224C521.502 749.901 522.326 749.739 523.247 749.739C524.542 749.739 525.559 750.023 526.298 750.591C527.042 751.159 527.571 751.909 527.883 752.841ZM543.388 763.273C542.127 763.273 541.039 762.994 540.124 762.438C539.215 761.875 538.513 761.091 538.019 760.085C537.53 759.074 537.286 757.898 537.286 756.557C537.286 755.216 537.53 754.034 538.019 753.011C538.513 751.983 539.201 751.182 540.081 750.608C540.968 750.028 542.002 749.739 543.184 749.739C543.865 749.739 544.539 749.852 545.203 750.08C545.868 750.307 546.473 750.676 547.019 751.188C547.564 751.693 547.999 752.364 548.323 753.199C548.647 754.034 548.809 755.062 548.809 756.284V757.136H538.718V755.398H546.763C546.763 754.659 546.615 754 546.32 753.42C546.03 752.841 545.615 752.384 545.076 752.048C544.542 751.713 543.911 751.545 543.184 751.545C542.382 751.545 541.689 751.744 541.104 752.142C540.525 752.534 540.078 753.045 539.766 753.676C539.453 754.307 539.297 754.983 539.297 755.705V756.864C539.297 757.852 539.468 758.69 539.809 759.378C540.155 760.06 540.635 760.58 541.249 760.938C541.863 761.29 542.576 761.466 543.388 761.466C543.917 761.466 544.394 761.392 544.82 761.244C545.252 761.091 545.624 760.864 545.936 760.562C546.249 760.256 546.49 759.875 546.661 759.42L548.604 759.966C548.4 760.625 548.056 761.205 547.573 761.705C547.09 762.199 546.493 762.585 545.783 762.864C545.073 763.136 544.275 763.273 543.388 763.273ZM551.868 763V749.909H553.811V751.955H553.982C554.255 751.256 554.695 750.713 555.303 750.327C555.911 749.935 556.641 749.739 557.493 749.739C558.357 749.739 559.076 749.935 559.65 750.327C560.229 750.713 560.681 751.256 561.005 751.955H561.141C561.476 751.278 561.979 750.741 562.65 750.344C563.32 749.94 564.124 749.739 565.061 749.739C566.232 749.739 567.189 750.105 567.934 750.838C568.678 751.565 569.05 752.699 569.05 754.239V763H567.039V754.239C567.039 753.273 566.775 752.582 566.246 752.168C565.718 751.753 565.096 751.545 564.38 751.545C563.459 751.545 562.746 751.824 562.24 752.381C561.735 752.932 561.482 753.631 561.482 754.477V763H559.436V754.034C559.436 753.29 559.195 752.69 558.712 752.236C558.229 751.776 557.607 751.545 556.846 751.545C556.323 751.545 555.834 751.685 555.38 751.963C554.931 752.241 554.567 752.628 554.289 753.122C554.016 753.611 553.88 754.176 553.88 754.818V763H551.868ZM572.728 767.909V749.909H574.671V751.989H574.909C575.057 751.761 575.262 751.472 575.523 751.119C575.79 750.761 576.171 750.443 576.665 750.165C577.165 749.881 577.841 749.739 578.694 749.739C579.796 749.739 580.767 750.014 581.608 750.565C582.449 751.116 583.105 751.898 583.577 752.909C584.049 753.92 584.284 755.114 584.284 756.489C584.284 757.875 584.049 759.077 583.577 760.094C583.105 761.105 582.452 761.889 581.617 762.446C580.782 762.997 579.819 763.273 578.728 763.273C577.887 763.273 577.213 763.134 576.708 762.855C576.202 762.571 575.813 762.25 575.54 761.892C575.267 761.528 575.057 761.227 574.909 760.989H574.739V767.909H572.728ZM574.705 756.455C574.705 757.443 574.85 758.315 575.14 759.071C575.429 759.821 575.853 760.409 576.409 760.835C576.966 761.256 577.648 761.466 578.455 761.466C579.296 761.466 579.998 761.244 580.56 760.801C581.128 760.352 581.554 759.75 581.838 758.994C582.128 758.233 582.273 757.386 582.273 756.455C582.273 755.534 582.131 754.705 581.847 753.966C581.569 753.222 581.145 752.634 580.577 752.202C580.015 751.764 579.307 751.545 578.455 751.545C577.637 751.545 576.949 751.753 576.392 752.168C575.836 752.577 575.415 753.151 575.131 753.889C574.847 754.622 574.705 755.477 574.705 756.455ZM593.046 749.909V751.614H586.262V749.909H593.046ZM588.239 746.773H590.25V759.25C590.25 759.818 590.333 760.244 590.498 760.528C590.668 760.807 590.884 760.994 591.145 761.091C591.412 761.182 591.694 761.227 591.989 761.227C592.211 761.227 592.392 761.216 592.534 761.193C592.676 761.165 592.79 761.142 592.875 761.125L593.284 762.932C593.148 762.983 592.958 763.034 592.713 763.085C592.469 763.142 592.159 763.17 591.784 763.17C591.216 763.17 590.659 763.048 590.114 762.804C589.574 762.56 589.125 762.188 588.767 761.688C588.415 761.188 588.239 760.557 588.239 759.795V746.773ZM597.367 767.909C597.026 767.909 596.722 767.881 596.455 767.824C596.188 767.773 596.003 767.722 595.901 767.67L596.412 765.898C596.901 766.023 597.333 766.068 597.708 766.034C598.083 766 598.415 765.832 598.705 765.531C599 765.236 599.27 764.756 599.515 764.091L599.89 763.068L595.049 749.909H597.23L600.844 760.341H600.98L604.594 749.909H606.776L601.219 764.909C600.969 765.585 600.659 766.145 600.29 766.588C599.921 767.037 599.492 767.369 599.003 767.585C598.52 767.801 597.975 767.909 597.367 767.909ZM610.076 763.136C609.656 763.136 609.295 762.986 608.994 762.685C608.693 762.384 608.542 762.023 608.542 761.602C608.542 761.182 608.693 760.821 608.994 760.52C609.295 760.219 609.656 760.068 610.076 760.068C610.497 760.068 610.858 760.219 611.159 760.52C611.46 760.821 611.61 761.182 611.61 761.602C611.61 761.881 611.539 762.136 611.397 762.369C611.261 762.602 611.076 762.79 610.843 762.932C610.616 763.068 610.36 763.136 610.076 763.136ZM310.038 778.909C309.936 778.045 309.521 777.375 308.794 776.898C308.066 776.42 307.174 776.182 306.118 776.182C305.345 776.182 304.669 776.307 304.089 776.557C303.515 776.807 303.066 777.151 302.743 777.588C302.424 778.026 302.265 778.523 302.265 779.08C302.265 779.545 302.376 779.946 302.598 780.281C302.825 780.611 303.115 780.886 303.467 781.108C303.819 781.324 304.189 781.503 304.575 781.645C304.961 781.781 305.316 781.892 305.64 781.977L307.413 782.455C307.868 782.574 308.373 782.739 308.93 782.949C309.493 783.159 310.029 783.446 310.541 783.81C311.058 784.168 311.484 784.628 311.819 785.19C312.154 785.753 312.322 786.443 312.322 787.261C312.322 788.205 312.075 789.057 311.581 789.818C311.092 790.58 310.376 791.185 309.433 791.634C308.495 792.082 307.356 792.307 306.015 792.307C304.765 792.307 303.683 792.105 302.768 791.702C301.859 791.298 301.143 790.736 300.62 790.014C300.103 789.293 299.811 788.455 299.743 787.5H301.924C301.981 788.159 302.203 788.705 302.589 789.136C302.981 789.562 303.475 789.881 304.072 790.091C304.674 790.295 305.322 790.398 306.015 790.398C306.822 790.398 307.547 790.267 308.189 790.006C308.831 789.739 309.339 789.369 309.714 788.898C310.089 788.42 310.277 787.864 310.277 787.227C310.277 786.648 310.115 786.176 309.791 785.812C309.467 785.449 309.041 785.153 308.512 784.926C307.984 784.699 307.413 784.5 306.799 784.33L304.652 783.716C303.288 783.324 302.208 782.764 301.413 782.037C300.618 781.31 300.22 780.358 300.22 779.182C300.22 778.205 300.484 777.352 301.012 776.625C301.547 775.892 302.262 775.324 303.16 774.92C304.064 774.511 305.072 774.307 306.186 774.307C307.311 774.307 308.311 774.509 309.186 774.912C310.061 775.31 310.754 775.855 311.265 776.548C311.782 777.241 312.055 778.028 312.083 778.909H310.038ZM321.218 778.909V780.614H314.434V778.909H321.218ZM316.411 775.773H318.422V788.25C318.422 788.818 318.505 789.244 318.669 789.528C318.84 789.807 319.056 789.994 319.317 790.091C319.584 790.182 319.865 790.227 320.161 790.227C320.382 790.227 320.564 790.216 320.706 790.193C320.848 790.165 320.962 790.142 321.047 790.125L321.456 791.932C321.32 791.983 321.13 792.034 320.885 792.085C320.641 792.142 320.331 792.17 319.956 792.17C319.388 792.17 318.831 792.048 318.286 791.804C317.746 791.56 317.297 791.188 316.939 790.688C316.587 790.188 316.411 789.557 316.411 788.795V775.773ZM328.096 792.307C327.266 792.307 326.513 792.151 325.837 791.838C325.161 791.52 324.624 791.062 324.226 790.466C323.828 789.864 323.63 789.136 323.63 788.284C323.63 787.534 323.777 786.926 324.073 786.46C324.368 785.989 324.763 785.619 325.257 785.352C325.752 785.085 326.297 784.886 326.894 784.756C327.496 784.619 328.101 784.511 328.709 784.432C329.505 784.33 330.15 784.253 330.644 784.202C331.144 784.145 331.507 784.051 331.735 783.92C331.968 783.79 332.084 783.562 332.084 783.239V783.17C332.084 782.33 331.854 781.676 331.394 781.21C330.939 780.744 330.249 780.511 329.323 780.511C328.363 780.511 327.61 780.722 327.064 781.142C326.519 781.562 326.135 782.011 325.914 782.489L324.005 781.807C324.346 781.011 324.8 780.392 325.368 779.949C325.942 779.5 326.567 779.187 327.243 779.011C327.925 778.83 328.596 778.739 329.255 778.739C329.675 778.739 330.158 778.79 330.703 778.892C331.255 778.989 331.786 779.19 332.297 779.497C332.814 779.804 333.243 780.267 333.584 780.886C333.925 781.506 334.096 782.335 334.096 783.375V792H332.084V790.227H331.982C331.846 790.511 331.618 790.815 331.3 791.139C330.982 791.463 330.559 791.739 330.03 791.966C329.502 792.193 328.857 792.307 328.096 792.307ZM328.402 790.5C329.198 790.5 329.868 790.344 330.414 790.031C330.965 789.719 331.38 789.315 331.658 788.821C331.942 788.327 332.084 787.807 332.084 787.261V785.42C331.999 785.523 331.811 785.616 331.522 785.702C331.238 785.781 330.908 785.852 330.533 785.915C330.164 785.972 329.803 786.023 329.451 786.068C329.104 786.108 328.823 786.142 328.607 786.17C328.084 786.239 327.596 786.349 327.141 786.503C326.692 786.651 326.328 786.875 326.05 787.176C325.777 787.472 325.641 787.875 325.641 788.386C325.641 789.085 325.9 789.614 326.417 789.972C326.939 790.324 327.601 790.5 328.402 790.5ZM337.767 792V778.909H339.71V780.886H339.846C340.085 780.239 340.517 779.713 341.142 779.31C341.767 778.906 342.471 778.705 343.255 778.705C343.403 778.705 343.588 778.707 343.809 778.713C344.031 778.719 344.199 778.727 344.312 778.739V780.784C344.244 780.767 344.088 780.741 343.843 780.707C343.605 780.668 343.352 780.648 343.085 780.648C342.449 780.648 341.88 780.781 341.38 781.048C340.886 781.31 340.494 781.673 340.204 782.139C339.92 782.599 339.778 783.125 339.778 783.716V792H337.767ZM353.21 778.909V780.614H346.426V778.909H353.21ZM348.403 775.773H350.414V788.25C350.414 788.818 350.497 789.244 350.662 789.528C350.832 789.807 351.048 789.994 351.309 790.091C351.576 790.182 351.858 790.227 352.153 790.227C352.375 790.227 352.556 790.216 352.699 790.193C352.841 790.165 352.954 790.142 353.039 790.125L353.449 791.932C353.312 791.983 353.122 792.034 352.877 792.085C352.633 792.142 352.324 792.17 351.949 792.17C351.38 792.17 350.824 792.048 350.278 791.804C349.738 791.56 349.289 791.188 348.931 790.688C348.579 790.188 348.403 789.557 348.403 788.795V775.773ZM366.838 792.307C366.008 792.307 365.255 792.151 364.579 791.838C363.903 791.52 363.366 791.062 362.968 790.466C362.571 789.864 362.372 789.136 362.372 788.284C362.372 787.534 362.52 786.926 362.815 786.46C363.11 785.989 363.505 785.619 364 785.352C364.494 785.085 365.039 784.886 365.636 784.756C366.238 784.619 366.843 784.511 367.451 784.432C368.247 784.33 368.892 784.253 369.386 784.202C369.886 784.145 370.25 784.051 370.477 783.92C370.71 783.79 370.826 783.562 370.826 783.239V783.17C370.826 782.33 370.596 781.676 370.136 781.21C369.681 780.744 368.991 780.511 368.065 780.511C367.105 780.511 366.352 780.722 365.806 781.142C365.261 781.562 364.877 782.011 364.656 782.489L362.747 781.807C363.088 781.011 363.542 780.392 364.11 779.949C364.684 779.5 365.309 779.187 365.985 779.011C366.667 778.83 367.338 778.739 367.997 778.739C368.417 778.739 368.9 778.79 369.446 778.892C369.997 778.989 370.528 779.19 371.039 779.497C371.556 779.804 371.985 780.267 372.326 780.886C372.667 781.506 372.838 782.335 372.838 783.375V792H370.826V790.227H370.724C370.588 790.511 370.36 790.815 370.042 791.139C369.724 791.463 369.301 791.739 368.772 791.966C368.244 792.193 367.599 792.307 366.838 792.307ZM367.145 790.5C367.94 790.5 368.61 790.344 369.156 790.031C369.707 789.719 370.122 789.315 370.4 788.821C370.684 788.327 370.826 787.807 370.826 787.261V785.42C370.741 785.523 370.554 785.616 370.264 785.702C369.98 785.781 369.65 785.852 369.275 785.915C368.906 785.972 368.545 786.023 368.193 786.068C367.846 786.108 367.565 786.142 367.349 786.17C366.826 786.239 366.338 786.349 365.883 786.503C365.434 786.651 365.071 786.875 364.792 787.176C364.52 787.472 364.383 787.875 364.383 788.386C364.383 789.085 364.642 789.614 365.159 789.972C365.681 790.324 366.343 790.5 367.145 790.5ZM381.452 792.273C380.361 792.273 379.398 791.997 378.563 791.446C377.728 790.889 377.074 790.105 376.603 789.094C376.131 788.077 375.895 786.875 375.895 785.489C375.895 784.114 376.131 782.92 376.603 781.909C377.074 780.898 377.73 780.116 378.571 779.565C379.412 779.014 380.384 778.739 381.486 778.739C382.338 778.739 383.012 778.881 383.506 779.165C384.006 779.443 384.387 779.761 384.648 780.119C384.915 780.472 385.123 780.761 385.27 780.989H385.441V774.545H387.452V792H385.509V789.989H385.27C385.123 790.227 384.912 790.528 384.64 790.892C384.367 791.25 383.978 791.571 383.472 791.855C382.966 792.134 382.293 792.273 381.452 792.273ZM381.725 790.466C382.532 790.466 383.213 790.256 383.77 789.835C384.327 789.409 384.75 788.821 385.04 788.071C385.33 787.315 385.475 786.443 385.475 785.455C385.475 784.477 385.333 783.622 385.049 782.889C384.765 782.151 384.344 781.577 383.787 781.168C383.23 780.753 382.543 780.545 381.725 780.545C380.873 780.545 380.162 780.764 379.594 781.202C379.032 781.634 378.608 782.222 378.324 782.966C378.046 783.705 377.907 784.534 377.907 785.455C377.907 786.386 378.049 787.233 378.333 787.994C378.623 788.75 379.049 789.352 379.611 789.801C380.179 790.244 380.884 790.466 381.725 790.466ZM396.358 792.273C395.267 792.273 394.304 791.997 393.469 791.446C392.634 790.889 391.98 790.105 391.509 789.094C391.037 788.077 390.801 786.875 390.801 785.489C390.801 784.114 391.037 782.92 391.509 781.909C391.98 780.898 392.637 780.116 393.478 779.565C394.319 779.014 395.29 778.739 396.392 778.739C397.245 778.739 397.918 778.881 398.412 779.165C398.912 779.443 399.293 779.761 399.554 780.119C399.821 780.472 400.029 780.761 400.176 780.989H400.347V774.545H402.358V792H400.415V789.989H400.176C400.029 790.227 399.819 790.528 399.546 790.892C399.273 791.25 398.884 791.571 398.378 791.855C397.873 792.134 397.199 792.273 396.358 792.273ZM396.631 790.466C397.438 790.466 398.12 790.256 398.676 789.835C399.233 789.409 399.657 788.821 399.946 788.071C400.236 787.315 400.381 786.443 400.381 785.455C400.381 784.477 400.239 783.622 399.955 782.889C399.671 782.151 399.25 781.577 398.694 781.168C398.137 780.753 397.449 780.545 396.631 780.545C395.779 780.545 395.069 780.764 394.5 781.202C393.938 781.634 393.515 782.222 393.23 782.966C392.952 783.705 392.813 784.534 392.813 785.455C392.813 786.386 392.955 787.233 393.239 787.994C393.529 788.75 393.955 789.352 394.517 789.801C395.086 790.244 395.79 790.466 396.631 790.466ZM406.321 792V778.909H408.333V792H406.321ZM407.344 776.727C406.952 776.727 406.614 776.594 406.33 776.327C406.051 776.06 405.912 775.739 405.912 775.364C405.912 774.989 406.051 774.668 406.33 774.401C406.614 774.134 406.952 774 407.344 774C407.736 774 408.071 774.134 408.35 774.401C408.634 774.668 408.776 774.989 408.776 775.364C408.776 775.739 408.634 776.06 408.35 776.327C408.071 776.594 407.736 776.727 407.344 776.727ZM414.028 784.125V792H412.017V778.909H413.96V780.955H414.13C414.437 780.29 414.903 779.756 415.528 779.352C416.153 778.943 416.96 778.739 417.949 778.739C418.835 778.739 419.61 778.92 420.275 779.284C420.94 779.642 421.457 780.188 421.826 780.92C422.196 781.648 422.38 782.568 422.38 783.682V792H420.369V783.818C420.369 782.79 420.102 781.989 419.568 781.415C419.034 780.835 418.301 780.545 417.369 780.545C416.727 780.545 416.153 780.685 415.647 780.963C415.147 781.241 414.752 781.648 414.463 782.182C414.173 782.716 414.028 783.364 414.028 784.125ZM431.34 797.182C430.368 797.182 429.533 797.057 428.834 796.807C428.135 796.562 427.553 796.239 427.087 795.835C426.627 795.438 426.26 795.011 425.988 794.557L427.59 793.432C427.772 793.67 428.002 793.943 428.28 794.25C428.559 794.562 428.939 794.832 429.422 795.06C429.911 795.293 430.55 795.409 431.34 795.409C432.397 795.409 433.269 795.153 433.956 794.642C434.644 794.131 434.988 793.33 434.988 792.239V789.58H434.817C434.669 789.818 434.459 790.114 434.186 790.466C433.919 790.812 433.533 791.122 433.027 791.395C432.527 791.662 431.851 791.795 430.999 791.795C429.942 791.795 428.993 791.545 428.152 791.045C427.317 790.545 426.655 789.818 426.167 788.864C425.684 787.909 425.442 786.75 425.442 785.386C425.442 784.045 425.678 782.878 426.15 781.884C426.621 780.884 427.277 780.111 428.118 779.565C428.959 779.014 429.931 778.739 431.033 778.739C431.885 778.739 432.561 778.881 433.061 779.165C433.567 779.443 433.953 779.761 434.221 780.119C434.493 780.472 434.703 780.761 434.851 780.989H435.056V778.909H436.999V792.375C436.999 793.5 436.743 794.415 436.232 795.119C435.726 795.83 435.044 796.349 434.186 796.679C433.334 797.014 432.385 797.182 431.34 797.182ZM431.272 789.989C432.078 789.989 432.76 789.804 433.317 789.435C433.874 789.065 434.297 788.534 434.587 787.841C434.877 787.148 435.022 786.318 435.022 785.352C435.022 784.409 434.88 783.577 434.596 782.855C434.311 782.134 433.891 781.568 433.334 781.159C432.777 780.75 432.09 780.545 431.272 780.545C430.419 780.545 429.709 780.761 429.141 781.193C428.578 781.625 428.155 782.205 427.871 782.932C427.593 783.659 427.453 784.466 427.453 785.352C427.453 786.261 427.596 787.065 427.88 787.764C428.169 788.457 428.596 789.003 429.158 789.401C429.726 789.793 430.431 789.989 431.272 789.989ZM447.431 792V778.909H449.442V792H447.431ZM448.453 776.727C448.061 776.727 447.723 776.594 447.439 776.327C447.161 776.06 447.022 775.739 447.022 775.364C447.022 774.989 447.161 774.668 447.439 774.401C447.723 774.134 448.061 774 448.453 774C448.846 774 449.181 774.134 449.459 774.401C449.743 774.668 449.885 774.989 449.885 775.364C449.885 775.739 449.743 776.06 449.459 776.327C449.181 776.594 448.846 776.727 448.453 776.727ZM458.819 778.909V780.614H452.035V778.909H458.819ZM454.012 775.773H456.024V788.25C456.024 788.818 456.106 789.244 456.271 789.528C456.441 789.807 456.657 789.994 456.919 790.091C457.186 790.182 457.467 790.227 457.762 790.227C457.984 790.227 458.166 790.216 458.308 790.193C458.45 790.165 458.564 790.142 458.649 790.125L459.058 791.932C458.922 791.983 458.731 792.034 458.487 792.085C458.243 792.142 457.933 792.17 457.558 792.17C456.99 792.17 456.433 792.048 455.887 791.804C455.348 791.56 454.899 791.188 454.541 790.688C454.189 790.188 454.012 789.557 454.012 788.795V775.773ZM467.193 792.273C465.931 792.273 464.843 791.994 463.929 791.438C463.02 790.875 462.318 790.091 461.824 789.085C461.335 788.074 461.091 786.898 461.091 785.557C461.091 784.216 461.335 783.034 461.824 782.011C462.318 780.983 463.005 780.182 463.886 779.608C464.772 779.028 465.806 778.739 466.988 778.739C467.67 778.739 468.343 778.852 469.008 779.08C469.673 779.307 470.278 779.676 470.824 780.188C471.369 780.693 471.804 781.364 472.127 782.199C472.451 783.034 472.613 784.062 472.613 785.284V786.136H462.522V784.398H470.568C470.568 783.659 470.42 783 470.125 782.42C469.835 781.841 469.42 781.384 468.88 781.048C468.346 780.713 467.716 780.545 466.988 780.545C466.187 780.545 465.494 780.744 464.909 781.142C464.329 781.534 463.883 782.045 463.571 782.676C463.258 783.307 463.102 783.983 463.102 784.705V785.864C463.102 786.852 463.272 787.69 463.613 788.378C463.96 789.06 464.44 789.58 465.054 789.938C465.667 790.29 466.38 790.466 467.193 790.466C467.721 790.466 468.199 790.392 468.625 790.244C469.056 790.091 469.429 789.864 469.741 789.562C470.054 789.256 470.295 788.875 470.466 788.42L472.409 788.966C472.204 789.625 471.86 790.205 471.377 790.705C470.895 791.199 470.298 791.585 469.588 791.864C468.877 792.136 468.079 792.273 467.193 792.273ZM475.673 792V778.909H477.616V780.955H477.787C478.059 780.256 478.5 779.713 479.108 779.327C479.716 778.935 480.446 778.739 481.298 778.739C482.162 778.739 482.88 778.935 483.454 779.327C484.034 779.713 484.485 780.256 484.809 780.955H484.946C485.281 780.278 485.784 779.741 486.454 779.344C487.125 778.94 487.929 778.739 488.866 778.739C490.037 778.739 490.994 779.105 491.738 779.838C492.483 780.565 492.855 781.699 492.855 783.239V792H490.843V783.239C490.843 782.273 490.579 781.582 490.051 781.168C489.522 780.753 488.9 780.545 488.184 780.545C487.264 780.545 486.551 780.824 486.045 781.381C485.539 781.932 485.287 782.631 485.287 783.477V792H483.241V783.034C483.241 782.29 483 781.69 482.517 781.236C482.034 780.776 481.412 780.545 480.65 780.545C480.127 780.545 479.639 780.685 479.184 780.963C478.735 781.241 478.372 781.628 478.093 782.122C477.821 782.611 477.684 783.176 477.684 783.818V792H475.673ZM505.805 781.841L503.998 782.352C503.885 782.051 503.717 781.759 503.495 781.474C503.279 781.185 502.984 780.946 502.609 780.759C502.234 780.571 501.754 780.477 501.169 780.477C500.368 780.477 499.7 780.662 499.166 781.031C498.637 781.395 498.373 781.858 498.373 782.42C498.373 782.92 498.555 783.315 498.919 783.605C499.282 783.895 499.85 784.136 500.623 784.33L502.566 784.807C503.737 785.091 504.609 785.526 505.183 786.111C505.757 786.69 506.044 787.437 506.044 788.352C506.044 789.102 505.828 789.773 505.396 790.364C504.97 790.955 504.373 791.42 503.606 791.761C502.839 792.102 501.947 792.273 500.93 792.273C499.595 792.273 498.49 791.983 497.615 791.403C496.74 790.824 496.186 789.977 495.953 788.864L497.862 788.386C498.044 789.091 498.387 789.619 498.893 789.972C499.404 790.324 500.072 790.5 500.896 790.5C501.833 790.5 502.578 790.301 503.129 789.903C503.686 789.5 503.964 789.017 503.964 788.455C503.964 788 503.805 787.619 503.487 787.312C503.169 787 502.68 786.767 502.021 786.614L499.839 786.102C498.64 785.818 497.76 785.378 497.197 784.781C496.64 784.179 496.362 783.426 496.362 782.523C496.362 781.784 496.569 781.131 496.984 780.562C497.404 779.994 497.975 779.548 498.697 779.224C499.424 778.901 500.248 778.739 501.169 778.739C502.464 778.739 503.481 779.023 504.22 779.591C504.964 780.159 505.493 780.909 505.805 781.841ZM521.515 778.909V780.614H514.73V778.909H521.515ZM516.708 775.773H518.719V788.25C518.719 788.818 518.801 789.244 518.966 789.528C519.137 789.807 519.353 789.994 519.614 790.091C519.881 790.182 520.162 790.227 520.458 790.227C520.679 790.227 520.861 790.216 521.003 790.193C521.145 790.165 521.259 790.142 521.344 790.125L521.753 791.932C521.617 791.983 521.426 792.034 521.182 792.085C520.938 792.142 520.628 792.17 520.253 792.17C519.685 792.17 519.128 792.048 518.583 791.804C518.043 791.56 517.594 791.188 517.236 790.688C516.884 790.188 516.708 789.557 516.708 788.795V775.773ZM529.718 792.273C528.536 792.273 527.499 791.991 526.607 791.429C525.721 790.866 525.027 790.08 524.527 789.068C524.033 788.057 523.786 786.875 523.786 785.523C523.786 784.159 524.033 782.969 524.527 781.952C525.027 780.935 525.721 780.145 526.607 779.582C527.499 779.02 528.536 778.739 529.718 778.739C530.9 778.739 531.934 779.02 532.82 779.582C533.712 780.145 534.405 780.935 534.9 781.952C535.4 782.969 535.65 784.159 535.65 785.523C535.65 786.875 535.4 788.057 534.9 789.068C534.405 790.08 533.712 790.866 532.82 791.429C531.934 791.991 530.9 792.273 529.718 792.273ZM529.718 790.466C530.615 790.466 531.354 790.236 531.934 789.776C532.513 789.315 532.942 788.71 533.221 787.96C533.499 787.21 533.638 786.398 533.638 785.523C533.638 784.648 533.499 783.832 533.221 783.077C532.942 782.321 532.513 781.71 531.934 781.244C531.354 780.778 530.615 780.545 529.718 780.545C528.82 780.545 528.081 780.778 527.502 781.244C526.922 781.71 526.493 782.321 526.215 783.077C525.936 783.832 525.797 784.648 525.797 785.523C525.797 786.398 525.936 787.21 526.215 787.96C526.493 788.71 526.922 789.315 527.502 789.776C528.081 790.236 528.82 790.466 529.718 790.466ZM550.958 792.273C549.697 792.273 548.609 791.994 547.694 791.438C546.785 790.875 546.083 790.091 545.589 789.085C545.1 788.074 544.856 786.898 544.856 785.557C544.856 784.216 545.1 783.034 545.589 782.011C546.083 780.983 546.771 780.182 547.652 779.608C548.538 779.028 549.572 778.739 550.754 778.739C551.436 778.739 552.109 778.852 552.774 779.08C553.439 779.307 554.044 779.676 554.589 780.188C555.135 780.693 555.569 781.364 555.893 782.199C556.217 783.034 556.379 784.062 556.379 785.284V786.136H546.288V784.398H554.333C554.333 783.659 554.186 783 553.89 782.42C553.6 781.841 553.186 781.384 552.646 781.048C552.112 780.713 551.481 780.545 550.754 780.545C549.953 780.545 549.26 780.744 548.674 781.142C548.095 781.534 547.649 782.045 547.336 782.676C547.024 783.307 546.868 783.983 546.868 784.705V785.864C546.868 786.852 547.038 787.69 547.379 788.378C547.725 789.06 548.206 789.58 548.819 789.938C549.433 790.29 550.146 790.466 550.958 790.466C551.487 790.466 551.964 790.392 552.39 790.244C552.822 790.091 553.194 789.864 553.507 789.562C553.819 789.256 554.061 788.875 554.231 788.42L556.174 788.966C555.97 789.625 555.626 790.205 555.143 790.705C554.66 791.199 554.064 791.585 553.353 791.864C552.643 792.136 551.845 792.273 550.958 792.273ZM561.45 784.125V792H559.439V778.909H561.382V780.955H561.552C561.859 780.29 562.325 779.756 562.95 779.352C563.575 778.943 564.382 778.739 565.37 778.739C566.257 778.739 567.032 778.92 567.697 779.284C568.362 779.642 568.879 780.188 569.248 780.92C569.618 781.648 569.802 782.568 569.802 783.682V792H567.791V783.818C567.791 782.79 567.524 781.989 566.99 781.415C566.456 780.835 565.723 780.545 564.791 780.545C564.149 780.545 563.575 780.685 563.069 780.963C562.569 781.241 562.174 781.648 561.885 782.182C561.595 782.716 561.45 783.364 561.45 784.125ZM573.478 778.909H575.489V792.955C575.489 793.761 575.35 794.46 575.071 795.051C574.799 795.642 574.384 796.099 573.827 796.423C573.276 796.747 572.58 796.909 571.739 796.909C571.671 796.909 571.603 796.909 571.534 796.909C571.466 796.909 571.398 796.909 571.33 796.909V795.034C571.398 795.034 571.461 795.034 571.517 795.034C571.574 795.034 571.637 795.034 571.705 795.034C572.319 795.034 572.767 794.852 573.051 794.489C573.336 794.131 573.478 793.619 573.478 792.955V778.909ZM574.466 776.727C574.074 776.727 573.736 776.594 573.452 776.327C573.174 776.06 573.034 775.739 573.034 775.364C573.034 774.989 573.174 774.668 573.452 774.401C573.736 774.134 574.074 774 574.466 774C574.858 774 575.194 774.134 575.472 774.401C575.756 774.668 575.898 774.989 575.898 775.364C575.898 775.739 575.756 776.06 575.472 776.327C575.194 776.594 574.858 776.727 574.466 776.727ZM584.491 792.273C583.309 792.273 582.272 791.991 581.38 791.429C580.494 790.866 579.801 790.08 579.301 789.068C578.806 788.057 578.559 786.875 578.559 785.523C578.559 784.159 578.806 782.969 579.301 781.952C579.801 780.935 580.494 780.145 581.38 779.582C582.272 779.02 583.309 778.739 584.491 778.739C585.673 778.739 586.707 779.02 587.593 779.582C588.485 780.145 589.179 780.935 589.673 781.952C590.173 782.969 590.423 784.159 590.423 785.523C590.423 786.875 590.173 788.057 589.673 789.068C589.179 790.08 588.485 790.866 587.593 791.429C586.707 791.991 585.673 792.273 584.491 792.273ZM584.491 790.466C585.389 790.466 586.127 790.236 586.707 789.776C587.287 789.315 587.716 788.71 587.994 787.96C588.272 787.21 588.412 786.398 588.412 785.523C588.412 784.648 588.272 783.832 587.994 783.077C587.716 782.321 587.287 781.71 586.707 781.244C586.127 780.778 585.389 780.545 584.491 780.545C583.593 780.545 582.855 780.778 582.275 781.244C581.696 781.71 581.267 782.321 580.988 783.077C580.71 783.832 580.571 784.648 580.571 785.523C580.571 786.398 580.71 787.21 580.988 787.96C581.267 788.71 581.696 789.315 582.275 789.776C582.855 790.236 583.593 790.466 584.491 790.466ZM594.32 796.909C593.979 796.909 593.675 796.881 593.408 796.824C593.141 796.773 592.956 796.722 592.854 796.67L593.365 794.898C593.854 795.023 594.286 795.068 594.661 795.034C595.036 795 595.368 794.832 595.658 794.531C595.953 794.236 596.223 793.756 596.468 793.091L596.843 792.068L592.002 778.909H594.184L597.797 789.341H597.934L601.547 778.909H603.729L598.172 793.909C597.922 794.585 597.613 795.145 597.243 795.588C596.874 796.037 596.445 796.369 595.956 796.585C595.473 796.801 594.928 796.909 594.32 796.909ZM622.407 781.841L620.6 782.352C620.486 782.051 620.319 781.759 620.097 781.474C619.881 781.185 619.586 780.946 619.211 780.759C618.836 780.571 618.355 780.477 617.77 780.477C616.969 780.477 616.301 780.662 615.767 781.031C615.239 781.395 614.975 781.858 614.975 782.42C614.975 782.92 615.157 783.315 615.52 783.605C615.884 783.895 616.452 784.136 617.225 784.33L619.168 784.807C620.338 785.091 621.211 785.526 621.784 786.111C622.358 786.69 622.645 787.437 622.645 788.352C622.645 789.102 622.429 789.773 621.998 790.364C621.571 790.955 620.975 791.42 620.208 791.761C619.441 792.102 618.549 792.273 617.532 792.273C616.196 792.273 615.091 791.983 614.216 791.403C613.341 790.824 612.787 789.977 612.554 788.864L614.463 788.386C614.645 789.091 614.989 789.619 615.495 789.972C616.006 790.324 616.674 790.5 617.498 790.5C618.435 790.5 619.179 790.301 619.73 789.903C620.287 789.5 620.566 789.017 620.566 788.455C620.566 788 620.407 787.619 620.088 787.312C619.77 787 619.282 786.767 618.623 786.614L616.441 786.102C615.242 785.818 614.361 785.378 613.799 784.781C613.242 784.179 612.963 783.426 612.963 782.523C612.963 781.784 613.171 781.131 613.586 780.562C614.006 779.994 614.577 779.548 615.299 779.224C616.026 778.901 616.85 778.739 617.77 778.739C619.066 778.739 620.083 779.023 620.821 779.591C621.566 780.159 622.094 780.909 622.407 781.841ZM627.684 784.125V792H625.673V774.545H627.684V780.955H627.855C628.162 780.278 628.622 779.741 629.235 779.344C629.855 778.94 630.679 778.739 631.707 778.739C632.599 778.739 633.38 778.918 634.051 779.276C634.721 779.628 635.241 780.17 635.61 780.903C635.985 781.631 636.173 782.557 636.173 783.682V792H634.162V783.818C634.162 782.778 633.892 781.974 633.352 781.406C632.818 780.832 632.076 780.545 631.127 780.545C630.468 780.545 629.877 780.685 629.355 780.963C628.838 781.241 628.429 781.648 628.127 782.182C627.832 782.716 627.684 783.364 627.684 784.125ZM645.171 792.273C643.989 792.273 642.952 791.991 642.06 791.429C641.174 790.866 640.48 790.08 639.98 789.068C639.486 788.057 639.239 786.875 639.239 785.523C639.239 784.159 639.486 782.969 639.98 781.952C640.48 780.935 641.174 780.145 642.06 779.582C642.952 779.02 643.989 778.739 645.171 778.739C646.353 778.739 647.387 779.02 648.273 779.582C649.165 780.145 649.858 780.935 650.353 781.952C650.853 782.969 651.103 784.159 651.103 785.523C651.103 786.875 650.853 788.057 650.353 789.068C649.858 790.08 649.165 790.866 648.273 791.429C647.387 791.991 646.353 792.273 645.171 792.273ZM645.171 790.466C646.069 790.466 646.807 790.236 647.387 789.776C647.966 789.315 648.395 788.71 648.674 787.96C648.952 787.21 649.091 786.398 649.091 785.523C649.091 784.648 648.952 783.832 648.674 783.077C648.395 782.321 647.966 781.71 647.387 781.244C646.807 780.778 646.069 780.545 645.171 780.545C644.273 780.545 643.534 780.778 642.955 781.244C642.375 781.71 641.946 782.321 641.668 783.077C641.39 783.832 641.25 784.648 641.25 785.523C641.25 786.398 641.39 787.21 641.668 787.96C641.946 788.71 642.375 789.315 642.955 789.776C643.534 790.236 644.273 790.466 645.171 790.466ZM654.173 796.909V778.909H656.116V780.989H656.355C656.502 780.761 656.707 780.472 656.968 780.119C657.235 779.761 657.616 779.443 658.11 779.165C658.61 778.881 659.287 778.739 660.139 778.739C661.241 778.739 662.213 779.014 663.054 779.565C663.895 780.116 664.551 780.898 665.022 781.909C665.494 782.92 665.73 784.114 665.73 785.489C665.73 786.875 665.494 788.077 665.022 789.094C664.551 790.105 663.897 790.889 663.062 791.446C662.227 791.997 661.264 792.273 660.173 792.273C659.332 792.273 658.659 792.134 658.153 791.855C657.647 791.571 657.258 791.25 656.985 790.892C656.713 790.528 656.502 790.227 656.355 789.989H656.184V796.909H654.173ZM656.15 785.455C656.15 786.443 656.295 787.315 656.585 788.071C656.875 788.821 657.298 789.409 657.855 789.835C658.412 790.256 659.093 790.466 659.9 790.466C660.741 790.466 661.443 790.244 662.005 789.801C662.574 789.352 663 788.75 663.284 787.994C663.574 787.233 663.718 786.386 663.718 785.455C663.718 784.534 663.576 783.705 663.292 782.966C663.014 782.222 662.591 781.634 662.022 781.202C661.46 780.764 660.752 780.545 659.9 780.545C659.082 780.545 658.395 780.753 657.838 781.168C657.281 781.577 656.86 782.151 656.576 782.889C656.292 783.622 656.15 784.477 656.15 785.455ZM668.798 796.909V778.909H670.741V780.989H670.98C671.127 780.761 671.332 780.472 671.593 780.119C671.86 779.761 672.241 779.443 672.735 779.165C673.235 778.881 673.912 778.739 674.764 778.739C675.866 778.739 676.838 779.014 677.679 779.565C678.52 780.116 679.176 780.898 679.647 781.909C680.119 782.92 680.355 784.114 680.355 785.489C680.355 786.875 680.119 788.077 679.647 789.094C679.176 790.105 678.522 790.889 677.687 791.446C676.852 791.997 675.889 792.273 674.798 792.273C673.957 792.273 673.284 792.134 672.778 791.855C672.272 791.571 671.883 791.25 671.61 790.892C671.338 790.528 671.127 790.227 670.98 789.989H670.809V796.909H668.798ZM670.775 785.455C670.775 786.443 670.92 787.315 671.21 788.071C671.5 788.821 671.923 789.409 672.48 789.835C673.037 790.256 673.718 790.466 674.525 790.466C675.366 790.466 676.068 790.244 676.63 789.801C677.199 789.352 677.625 788.75 677.909 787.994C678.199 787.233 678.343 786.386 678.343 785.455C678.343 784.534 678.201 783.705 677.917 782.966C677.639 782.222 677.216 781.634 676.647 781.202C676.085 780.764 675.377 780.545 674.525 780.545C673.707 780.545 673.02 780.753 672.463 781.168C671.906 781.577 671.485 782.151 671.201 782.889C670.917 783.622 670.775 784.477 670.775 785.455ZM683.423 792V778.909H685.434V792H683.423ZM684.446 776.727C684.054 776.727 683.716 776.594 683.431 776.327C683.153 776.06 683.014 775.739 683.014 775.364C683.014 774.989 683.153 774.668 683.431 774.401C683.716 774.134 684.054 774 684.446 774C684.838 774 685.173 774.134 685.451 774.401C685.735 774.668 685.877 774.989 685.877 775.364C685.877 775.739 685.735 776.06 685.451 776.327C685.173 776.594 684.838 776.727 684.446 776.727ZM691.13 784.125V792H689.118V778.909H691.061V780.955H691.232C691.539 780.29 692.005 779.756 692.63 779.352C693.255 778.943 694.061 778.739 695.05 778.739C695.936 778.739 696.712 778.92 697.377 779.284C698.042 779.642 698.559 780.188 698.928 780.92C699.297 781.648 699.482 782.568 699.482 783.682V792H697.471V783.818C697.471 782.79 697.203 781.989 696.669 781.415C696.135 780.835 695.402 780.545 694.471 780.545C693.828 780.545 693.255 780.685 692.749 780.963C692.249 781.241 691.854 781.648 691.564 782.182C691.275 782.716 691.13 783.364 691.13 784.125ZM708.441 797.182C707.47 797.182 706.635 797.057 705.936 796.807C705.237 796.562 704.654 796.239 704.189 795.835C703.728 795.438 703.362 795.011 703.089 794.557L704.691 793.432C704.873 793.67 705.103 793.943 705.382 794.25C705.66 794.562 706.041 794.832 706.524 795.06C707.012 795.293 707.652 795.409 708.441 795.409C709.498 795.409 710.37 795.153 711.058 794.642C711.745 794.131 712.089 793.33 712.089 792.239V789.58H711.919C711.771 789.818 711.561 790.114 711.288 790.466C711.021 790.812 710.635 791.122 710.129 791.395C709.629 791.662 708.953 791.795 708.1 791.795C707.044 791.795 706.095 791.545 705.254 791.045C704.419 790.545 703.757 789.818 703.268 788.864C702.785 787.909 702.544 786.75 702.544 785.386C702.544 784.045 702.779 782.878 703.251 781.884C703.723 780.884 704.379 780.111 705.22 779.565C706.061 779.014 707.032 778.739 708.135 778.739C708.987 778.739 709.663 778.881 710.163 779.165C710.669 779.443 711.055 779.761 711.322 780.119C711.595 780.472 711.805 780.761 711.953 780.989H712.157V778.909H714.1V792.375C714.1 793.5 713.845 794.415 713.333 795.119C712.828 795.83 712.146 796.349 711.288 796.679C710.436 797.014 709.487 797.182 708.441 797.182ZM708.373 789.989C709.18 789.989 709.862 789.804 710.419 789.435C710.975 789.065 711.399 788.534 711.689 787.841C711.978 787.148 712.123 786.318 712.123 785.352C712.123 784.409 711.981 783.577 711.697 782.855C711.413 782.134 710.993 781.568 710.436 781.159C709.879 780.75 709.191 780.545 708.373 780.545C707.521 780.545 706.811 780.761 706.243 781.193C705.68 781.625 705.257 782.205 704.973 782.932C704.694 783.659 704.555 784.466 704.555 785.352C704.555 786.261 704.697 787.065 704.981 787.764C705.271 788.457 705.697 789.003 706.26 789.401C706.828 789.793 707.532 789.989 708.373 789.989ZM720.441 774.545L720.271 787.091H718.294L718.123 774.545H720.441ZM719.282 792.136C718.862 792.136 718.501 791.986 718.2 791.685C717.899 791.384 717.748 791.023 717.748 790.602C717.748 790.182 717.899 789.821 718.2 789.52C718.501 789.219 718.862 789.068 719.282 789.068C719.703 789.068 720.064 789.219 720.365 789.52C720.666 789.821 720.816 790.182 720.816 790.602C720.816 790.881 720.745 791.136 720.603 791.369C720.467 791.602 720.282 791.79 720.049 791.932C719.822 792.068 719.566 792.136 719.282 792.136Z" fill="#838282"/>
<circle cx="510.5" cy="369.5" r="175.5" fill="#ECF6EF"/>
<circle cx="346" cy="251" r="11" fill="#ECF6EF"/>
<circle cx="571.5" cy="173.5" r="20.5" fill="#ECF6EF"/>
<circle cx="362.5" cy="509.5" r="19.5" fill="#ECF6EF"/>
<circle cx="698.5" cy="463.5" r="19.5" fill="#ECF6EF"/>
<circle cx="660.5" cy="485.5" r="9.5" fill="#ECF6EF"/>
<path d="M520.525 202.537C519.946 202.414 519.946 201.586 520.525 201.463L529.291 199.599C529.502 199.554 529.668 199.389 529.713 199.178L531.601 190.474C531.726 189.897 532.549 189.897 532.674 190.474L534.561 199.178C534.607 199.389 534.772 199.554 534.984 199.599L543.749 201.463C544.329 201.586 544.329 202.414 543.749 202.537L534.984 204.401C534.772 204.446 534.607 204.611 534.561 204.822L532.674 213.526C532.549 214.103 531.726 214.103 531.601 213.526L529.713 204.822C529.668 204.611 529.502 204.446 529.291 204.401L520.525 202.537Z" fill="#8ECEA3"/>
<path d="M320.223 381.622C320.447 380.565 321.956 380.565 322.18 381.622L325.522 397.415C325.604 397.799 325.903 398.101 326.288 398.185L341.917 401.589C342.967 401.818 342.967 403.315 341.917 403.544L326.288 406.948C325.903 407.032 325.604 407.334 325.522 407.718L322.18 423.511C321.956 424.568 320.447 424.568 320.223 423.511L316.88 407.718C316.799 407.334 316.499 407.032 316.115 406.948L300.485 403.544C299.436 403.315 299.436 401.818 300.485 401.589L316.115 398.185C316.499 398.101 316.799 397.799 316.88 397.415L320.223 381.622Z" fill="#8ECEA3"/>
<path d="M667.345 255.622C667.568 254.565 669.078 254.565 669.301 255.622L671.251 264.835C671.333 265.22 671.633 265.521 672.017 265.605L681.161 267.597C682.21 267.826 682.21 269.323 681.161 269.551L672.017 271.543C671.633 271.627 671.333 271.928 671.251 272.313L669.301 281.526C669.078 282.583 667.568 282.583 667.345 281.526L665.395 272.313C665.313 271.928 665.014 271.627 664.629 271.543L655.485 269.551C654.436 269.323 654.436 267.826 655.485 267.597L664.629 265.605C665.014 265.521 665.313 265.22 665.395 264.835L667.345 255.622Z" fill="#8ECEA3"/>
<path d="M707.658 403.331L710.721 417.798L724.981 420.905L710.721 424.011L707.658 438.479L704.596 424.011L690.335 420.905L704.596 417.798L707.658 403.331Z" fill="white"/>
<path d="M610 290L373.5 380.5L424 521L454.5 534.5L492.5 542.5L531 541L553.5 537L573.5 531L606.5 514L634.5 492L636.662 489.206C648.865 473.431 659.684 456.634 669 439L610 290Z" fill="#ECF6EF"/>
<path d="M391.5 340.5L366.5 326.5L583.5 244.5L572 273L580.5 299.5L401 368L391.5 340.5Z" fill="#BDE4CB"/>
<path d="M423 520.5V520.5C444.882 531.688 468.572 538.913 492.973 541.841L493.582 541.915L510.979 541.915C524.011 541.915 537.005 540.528 549.743 537.777L554.056 536.846C567.675 533.906 580.824 529.104 593.134 522.576V522.576C602.738 517.483 611.767 511.373 620.066 504.351L622.76 502.072C629.962 495.977 636.645 489.295 642.739 482.092V482.092C651.272 472.008 658.601 460.964 664.579 449.184L670 438.5" stroke="#8ECEA3" stroke-width="4"/>
<path d="M371.582 378.415L424 521.467" stroke="#8ECEA3" stroke-width="4"/>
<path d="M612.082 289.915L669.588 440.172" stroke="#8ECEA3" stroke-width="4"/>
<path d="M362.582 326.914L586.575 242.746" stroke="#8ECEA3" stroke-width="4"/>
<path d="M370.423 380.991L608.931 289.011L573.77 272.682C572.761 272.213 572.328 271.01 572.808 270.006L585.053 244.384" stroke="#8ECEA3" stroke-width="4"/>
<path d="M364.591 326.224L389.804 339.741C390.762 340.255 391.134 341.44 390.642 342.41L371.582 379.914" stroke="#8ECEA3" stroke-width="4"/>
<path d="M363.582 324.415L379.828 365.023" stroke="#8ECEA3" stroke-width="4"/>
<path d="M391 342L401 370" stroke="#8ECEA3" stroke-width="4"/>
<path d="M573 272L583 301" stroke="#8ECEA3" stroke-width="4"/>
<path d="M585.229 244.852L599.582 284.414" stroke="#8ECEA3" stroke-width="4"/>
<circle cx="465.5" cy="367.5" r="10.5" fill="#BDE4CB"/>
<circle cx="450.5" cy="313.5" r="7.5" fill="#ECF6EF"/>
<circle cx="531.5" cy="342.5" r="10.5" fill="#BDE4CB"/>
<circle cx="496.5" cy="296.5" r="7.5" fill="#ECF6EF"/>
</g>
<defs>
<filter id="filter0_d_2_7192" x="0" y="0" width="1020" height="1020" filterUnits="userSpaceOnUse" color-interpolation-filters="sRGB">
<feFlood flood-opacity="0" result="BackgroundImageFix"/>
<feColorMatrix in="SourceAlpha" type="matrix" values="0 0 0 0 0 0 0 0 0 0 0 0 0 0 0 0 0 0 127 0" result="hardAlpha"/>
<feOffset dy="18"/>
<feGaussianBlur stdDeviation="55"/>
<feComposite in2="hardAlpha" operator="out"/>
<feColorMatrix type="matrix" values="0 0 0 0 0.816667 0 0 0 0 0.816667 0 0 0 0 0.816667 0 0 0 0.47 0"/>
<feBlend mode="normal" in2="BackgroundImageFix" result="effect1_dropShadow_2_7192"/>
<feBlend mode="normal" in="SourceGraphic" in2="effect1_dropShadow_2_7192" result="shape"/>
</filter>
</defs>
</svg>
